<?xml version="1.0" encoding="UTF-8"?>
<!DOCTYPE svg PUBLIC "-//W3C//DTD SVG 1.1//EN" "http://www.w3.org/Graphics/SVG/1.1/DTD/svg11.dtd">
<!-- Creator: CorelDRAW -->
<svg xmlns="http://www.w3.org/2000/svg" xml:space="preserve" width="1.44852in" height="1.43546in" version="1.1" style="shape-rendering:geometricPrecision; text-rendering:geometricPrecision; image-rendering:optimizeQuality; fill-rule:evenodd; clip-rule:evenodd"
viewBox="0 0 61.95 61.39"
 xmlns:xlink="http://www.w3.org/1999/xlink"
 xmlns:xodm="http://www.corel.com/coreldraw/odm/2003">
 <defs>
  <style type="text/css">
   <![CDATA[
    .fil0 {fill:#324F3B}
    .fil1 {fill:#EBE3D0}
   ]]>
  </style>
 </defs>
 <g id="Layer_x0020_1">
  <metadata id="CorelCorpID_0Corel-Layer"/>
  <g id="_2525389434576">
   <path class="fil0" d="M17.08 48.93l-4.95 -0.01c-0.2,-2.19 -0.09,-4.41 -0.09,-6.61 -0,-1.02 0.25,-3.72 -0.22,-4.36 -0.75,-1.03 -7.06,-6.68 -7.07,-7.2 -0.01,-0.6 6.3,-6.22 7.01,-7.27 0.48,-0.72 0.26,-8.56 0.29,-10.79l9.9 -0.09c1.78,-0 1.8,-0.56 2.68,-1.46l5.2 -5.25c0.52,-0.52 0.47,-0.77 1.4,-0.81l6.23 6.24c1.3,1.35 0.88,1.26 3.7,1.26 1.3,0 7.98,-0.15 8.67,0.14 0.23,0.62 0.11,7.61 0.11,8.82 0,2.4 -0.09,1.88 3.06,4.87 0.63,0.6 3.83,3.55 4.03,4.05 0.31,0.79 -2.97,3.58 -3.59,4.19l-3.02 2.97c-0.66,0.65 -0.5,1.1 -0.49,2.44l0.02 7.24c0.01,1.98 0.55,1.62 -3.77,1.61l-6.34 -0.02c-0.44,-0.73 -0.33,-2.72 -0.33,-3.82 -0,-1.17 0.29,-1.05 0.85,-1.65 1.23,-1.33 2.24,-2.87 3.04,-4.64 0.98,-2.18 1.84,-5.69 1.57,-8.52 -0.37,-0 -3.58,3.57 -4.47,4.4 -1.22,1.14 -2.21,0.41 -3.09,-0.31 -1.63,-1.34 -1.2,-0.77 -2.32,-2.28 -0.9,0.04 -2.14,-0.88 -3.21,-1.52 -1.54,-0.92 -1.31,-1.2 -1.33,-3.21 -1.31,0.28 -1.29,0.76 -4.08,0.15 -0.67,-0.15 -1.37,-0.36 -1.98,-0.59 -1.08,-0.41 -1.34,-0.49 -1.4,0.87 3.06,1.01 4.7,2.35 6.58,4.83 1.54,2.04 2.2,2.9 3.55,5.08 0.42,0.68 0.98,1.01 0.73,2 -0.7,0.21 -0.69,0.07 -1.04,-0.43l-4.93 -6.91c-0.5,-0.54 -1.2,-1.02 -1.8,-1.55 -0.98,-0.86 -3.93,-1.81 -4.41,-2.28 -0.75,-0.73 0.21,-1.65 0.52,-2.41 0.81,-2 1.11,-0.25 4.53,0.29 1.06,0.17 2.18,0.15 2.92,-0.37 0.46,-0.32 1.25,-1.3 1.23,-2.25 -0.03,-1.6 -2.16,-1.83 -4.05,-2.8 -1.53,-0.78 -3.03,-1.41 -4.67,-2.14 -1.05,-0.47 -1.55,-0.2 -2.2,0.42 -1.32,1.25 -3.5,4.26 -4.44,5.73 -2.39,3.75 -1.81,3.52 1.74,8.77 0.38,0.57 0.93,1.4 1.37,1.96l4.26 5.93c0.53,0.83 0.08,1.81 -0.03,2.92 -0.54,5.34 -0.25,4.34 -2.43,4.35 -1.16,0 -2.32,-0 -3.48,0zm-8.42 -39.82c-0.42,1.13 -0.25,8.97 -0.23,11.2 0.02,2.21 -0.13,1.69 -3.02,4.63 -0.67,0.69 -1.28,1.26 -1.96,1.94 -0.87,0.87 -3.7,3.39 -3.45,4.21 0.1,0.32 6.91,7.14 7.66,7.82 1.11,1.03 0.81,1.01 0.79,2.98l0 7.8c0,3.78 -0.74,2.8 8.76,2.86 1.2,0.01 2.6,-0.06 3.76,0.01 0.8,0.05 1.77,1.16 2.21,1.62l5.85 5.7c2.91,2.66 1.09,2.47 10.23,-6.1 0.87,-0.82 0.82,-1.24 2.46,-1.23 1.8,0.01 11.16,0.19 11.57,-0.22 0.41,-0.42 0.24,-9.48 0.23,-11.28 -0,-2.09 0.04,-1.59 1.14,-2.66l5.85 -5.71c3.01,-2.97 1.44,-1.86 -6.3,-10.23 -0.97,-1.05 -0.73,-1.14 -0.73,-2.98l0 -7.8c-0,-0.52 0.05,-1.49 -0.03,-1.95 -0.13,-0.74 -0.5,-0.71 -1.27,-0.72l-11.42 -0c-0.74,-0.09 -1.68,-1.32 -2.12,-1.77l-5.77 -5.8c-2.31,-2.39 -1.97,-1.92 -6.25,2.38 -1.32,1.33 -2.59,2.55 -3.89,3.91 -0.75,0.78 -0.91,1.29 -2.45,1.28 -2.24,-0.01 -10.53,-0.16 -11.63,0.1z"/>
   <path class="fil1" d="M42.51 23.58c0.97,-0.4 2.06,1.04 2.86,2.01 1.3,1.57 0.26,2.29 -0.74,3.19l-3.73 3.8c-0.3,0.34 -0.8,0.96 -1.18,1.19 -0.68,0.4 -1.26,-0.11 -1.67,-0.45 -1,-0.83 -2.13,-1.62 -1.14,-2.91 0.63,-0.83 4.99,-6.57 5.59,-6.82zm-4.87 -4.88c0.84,-0.42 1.48,0.31 1.93,0.72 2.54,2.29 2.64,2.1 0.66,4.82l-4.77 6.09c-1.07,0.93 -3.11,-0.71 -3.51,-1.49 -0.61,-1.18 0.84,-2.65 1.39,-3.56 0.64,-1.07 1.41,-2.22 2.11,-3.31 0.37,-0.58 1.81,-3.08 2.19,-3.27zm-9.24 1.2c0.17,-0.44 0.99,-1.61 1.32,-2.13 0.45,-0.73 0.83,-1.34 1.29,-2.04 1.14,-1.73 1.34,-1.73 4.18,0.15 0.64,0.42 1.67,0.77 1.3,1.99 -0.12,0.41 -0.94,1.72 -1.17,2.13 -0.55,0.94 -2.06,3.7 -2.76,4.12 -0.13,-0.15 -0.08,0.03 -0.22,-0.38 -0.44,-1.3 0.41,-1.12 -1.41,-2.21 -0.94,-0.56 -2.27,-1.09 -2.52,-1.63zm-1.28 -0.18c-0.52,-0.05 -2.17,-0.98 -2.86,-1.25 -0.96,-0.37 -2.49,-0.68 -1.72,-2.01 0.41,-0.71 2.81,-4.24 3.45,-4.65 0.85,-0.54 2.22,0.34 2.94,0.71 2.78,1.46 1.21,1.99 0.42,3.48 -0.26,0.49 -0.42,0.79 -0.7,1.25 -0.55,0.89 -0.98,1.65 -1.54,2.46zm-10.03 29.22c1.16,-0 2.32,0 3.48,-0 2.19,-0.01 1.89,0.99 2.43,-4.35 0.11,-1.11 0.56,-2.09 0.03,-2.92l-4.26 -5.93c-0.44,-0.57 -0.99,-1.4 -1.37,-1.96 -3.56,-5.25 -4.13,-5.02 -1.74,-8.77 0.94,-1.47 3.12,-4.49 4.44,-5.73 0.65,-0.62 1.15,-0.89 2.2,-0.42 1.64,0.73 3.14,1.36 4.67,2.14 1.9,0.97 4.03,1.19 4.05,2.8 0.02,0.95 -0.77,1.93 -1.23,2.25 -0.75,0.52 -1.86,0.53 -2.92,0.37 -3.43,-0.53 -3.73,-2.29 -4.53,-0.29 -0.31,0.76 -1.27,1.67 -0.52,2.41 0.47,0.47 3.43,1.42 4.41,2.28 0.6,0.52 1.3,1 1.8,1.55l4.93 6.91c0.35,0.5 0.34,0.64 1.04,0.43 0.25,-0.99 -0.31,-1.32 -0.73,-2 -1.35,-2.18 -2.01,-3.04 -3.55,-5.08 -1.88,-2.48 -3.52,-3.82 -6.58,-4.83 0.07,-1.37 0.32,-1.29 1.4,-0.87 0.6,0.23 1.31,0.44 1.98,0.59 2.78,0.61 2.76,0.13 4.08,-0.15 0.02,2.01 -0.21,2.29 1.33,3.21 1.06,0.64 2.3,1.56 3.21,1.52 1.12,1.51 0.68,0.94 2.32,2.28 0.88,0.72 1.86,1.45 3.09,0.31 0.89,-0.83 4.09,-4.4 4.47,-4.4 0.26,2.83 -0.59,6.34 -1.57,8.52 -0.8,1.77 -1.81,3.31 -3.04,4.64 -0.55,0.6 -0.85,0.48 -0.85,1.65 0,1.1 -0.11,3.1 0.33,3.82l6.34 0.02c4.31,0.01 3.78,0.36 3.77,-1.61l-0.02 -7.24c-0.01,-1.34 -0.17,-1.8 0.49,-2.44l3.02 -2.97c0.62,-0.6 3.9,-3.4 3.59,-4.19 -0.2,-0.5 -3.39,-3.45 -4.03,-4.05 -3.16,-2.99 -3.06,-2.47 -3.06,-4.87 -0,-1.21 0.12,-8.2 -0.11,-8.82 -0.69,-0.29 -7.37,-0.14 -8.67,-0.14 -2.83,-0 -2.4,0.09 -3.7,-1.26l-6.23 -6.24c-0.93,0.05 -0.88,0.3 -1.4,0.81l-5.2 5.25c-0.88,0.9 -0.9,1.45 -2.68,1.46l-9.9 0.09c-0.03,2.22 0.19,10.07 -0.29,10.79 -0.71,1.05 -7.02,6.67 -7.01,7.27 0.01,0.53 6.32,6.17 7.07,7.2 0.47,0.64 0.21,3.34 0.22,4.36 0,2.2 -0.11,4.42 0.09,6.61l4.95 0.01z"/>
   <path class="fil0" d="M37.64 18.7c-0.38,0.19 -1.82,2.7 -2.19,3.27 -0.7,1.09 -1.47,2.24 -2.11,3.31 -0.55,0.92 -2,2.39 -1.39,3.56 0.4,0.77 2.44,2.42 3.51,1.49l4.77 -6.09c1.99,-2.72 1.88,-2.53 -0.66,-4.82 -0.46,-0.41 -1.1,-1.14 -1.93,-0.72z"/>
   <path class="fil0" d="M42.51 23.58c-0.6,0.25 -4.96,6 -5.59,6.82 -0.99,1.3 0.14,2.08 1.14,2.91 0.4,0.33 0.98,0.85 1.67,0.45 0.38,-0.23 0.88,-0.85 1.18,-1.19l3.73 -3.8c1,-0.9 2.04,-1.63 0.74,-3.19 -0.8,-0.96 -1.89,-2.41 -2.86,-2.01z"/>
   <path class="fil0" d="M28.39 19.89c0.25,0.53 1.58,1.06 2.52,1.63 1.82,1.09 0.97,0.91 1.41,2.21 0.14,0.41 0.09,0.23 0.22,0.38 0.7,-0.42 2.22,-3.17 2.76,-4.12 0.24,-0.41 1.05,-1.73 1.17,-2.13 0.37,-1.22 -0.66,-1.56 -1.3,-1.99 -2.83,-1.88 -3.04,-1.88 -4.18,-0.15 -0.46,0.7 -0.84,1.31 -1.29,2.04 -0.33,0.53 -1.15,1.7 -1.32,2.13z"/>
   <path class="fil0" d="M27.11 19.71c0.56,-0.82 0.99,-1.57 1.54,-2.46 0.28,-0.46 0.44,-0.76 0.7,-1.25 0.79,-1.5 2.37,-2.03 -0.42,-3.48 -0.72,-0.38 -2.09,-1.26 -2.94,-0.71 -0.64,0.41 -3.05,3.94 -3.45,4.65 -0.77,1.33 0.75,1.64 1.72,2.01 0.69,0.26 2.34,1.2 2.86,1.25z"/>
  </g>
 </g>
</svg>
