<svg xmlns="http://www.w3.org/2000/svg" xmlns:xlink="http://www.w3.org/1999/xlink" version="1.1" class="w-full h-full" viewBox="0 0 256 256" xml:space="preserve">

<defs>
</defs>
<g style="stroke: none; stroke-width: 0; stroke-dasharray: none; stroke-linecap: butt; stroke-linejoin: miter; stroke-miterlimit: 10; fill: none; fill-rule: nonzero; opacity: 1;" transform="translate(1.4065934065934016 1.4065934065934016) scale(2.81 2.81)" >
	<path d="M 13.038 79.354 V 10.788 C 13.038 5.382 17.42 1 22.826 1 h 54.137 v 68.709" style="stroke: none; stroke-width: 1; stroke-dasharray: none; stroke-linecap: butt; stroke-linejoin: miter; stroke-miterlimit: 10; fill: rgb(71,96,221); fill-rule: nonzero; opacity: 1;" transform=" matrix(1 0 0 1 0 0) " stroke-linecap="round" />
	<path d="M 76.962 69.709 V 89 H 73.25 H 22.683 c -5.327 0 -9.646 -4.318 -9.646 -9.646 v 0 c 0 -5.327 4.318 -9.646 9.646 -9.646 h 41.798 H 76.962 z" style="stroke: none; stroke-width: 1; stroke-dasharray: none; stroke-linecap: butt; stroke-linejoin: miter; stroke-miterlimit: 10; fill: rgb(240,240,240); fill-rule: nonzero; opacity: 1;" transform=" matrix(1 0 0 1 0 0) " stroke-linecap="round" />
	<path d="M 13.038 80.354 c -0.552 0 -1 -0.447 -1 -1 V 10.788 C 12.038 4.839 16.877 0 22.826 0 h 54.137 c 0.553 0 1 0.448 1 1 v 68.709 c 0 0.553 -0.447 1 -1 1 s -1 -0.447 -1 -1 V 2 H 22.826 c -4.846 0 -8.788 3.942 -8.788 8.788 v 68.566 C 14.038 79.907 13.59 80.354 13.038 80.354 z" style="stroke: none; stroke-width: 1; stroke-dasharray: none; stroke-linecap: butt; stroke-linejoin: miter; stroke-miterlimit: 10; fill: rgb(0,0,0); fill-rule: nonzero; opacity: 1;" transform=" matrix(1 0 0 1 0 0) " stroke-linecap="round" />
	<path d="M 76.963 90 h -54.28 c -5.87 0 -10.646 -4.775 -10.646 -10.646 s 4.775 -10.646 10.646 -10.646 h 54.28 c 0.553 0 1 0.447 1 1 V 89 C 77.963 89.553 77.516 90 76.963 90 z M 22.683 70.709 c -4.767 0 -8.646 3.878 -8.646 8.646 S 17.916 88 22.683 88 h 53.28 V 70.709 H 22.683 z" style="stroke: none; stroke-width: 1; stroke-dasharray: none; stroke-linecap: butt; stroke-linejoin: miter; stroke-miterlimit: 10; fill: rgb(0,0,0); fill-rule: nonzero; opacity: 1;" transform=" matrix(1 0 0 1 0 0) " stroke-linecap="round" />
	<path d="M 65.102 22.6 H 25.32 c -0.552 0 -1 -0.448 -1 -1 s 0.448 -1 1 -1 h 39.782 c 0.553 0 1 0.448 1 1 S 65.654 22.6 65.102 22.6 z" style="stroke: none; stroke-width: 1; stroke-dasharray: none; stroke-linecap: butt; stroke-linejoin: miter; stroke-miterlimit: 10; fill: rgb(0,0,0); fill-rule: nonzero; opacity: 1;" transform=" matrix(1 0 0 1 0 0) " stroke-linecap="round" />
	<path d="M 65.102 32.833 H 25.32 c -0.552 0 -1 -0.448 -1 -1 s 0.448 -1 1 -1 h 39.782 c 0.553 0 1 0.448 1 1 S 65.654 32.833 65.102 32.833 z" style="stroke: none; stroke-width: 1; stroke-dasharray: none; stroke-linecap: butt; stroke-linejoin: miter; stroke-miterlimit: 10; fill: rgb(0,0,0); fill-rule: nonzero; opacity: 1;" transform=" matrix(1 0 0 1 0 0) " stroke-linecap="round" />
</g>
</svg>